<svg xmlns="http://www.w3.org/2000/svg" width="900" height="340" viewBox="0 0 900 340" fill="none">
  <defs>
    <linearGradient id="curve-area-grad" x1="0" y1="0" x2="0" y2="1">
      <stop offset="0%" stop-color="#00FFA3" stop-opacity="0.30"/>
      <stop offset="60%" stop-color="#7B61FF" stop-opacity="0.12"/>
      <stop offset="100%" stop-color="#07090E" stop-opacity="0.0"/>
    </linearGradient>
  </defs>

  <style>
    .card-bg { fill: #07090E; stroke: #7B61FF; stroke-width: 1.5; rx: 10px; }
    .title { font-family: -apple-system, BlinkMacSystemFont, 'Segoe UI', Roboto, sans-serif; font-size: 15px; font-weight: 700; fill: #00FFA3; text-anchor: middle; }
    .axis-title { font-family: -apple-system, BlinkMacSystemFont, 'Segoe UI', Roboto, sans-serif; font-size: 12px; font-weight: 700; fill: #00FFA3; text-anchor: middle; }
    .chart-line { fill: none; stroke: #7B61FF; stroke-width: 3.5; stroke-linecap: round; stroke-linejoin: round; }
  </style>

  <rect width="898" height="338" x="1" y="1" class="card-bg"/>

  <!-- Centered Title -->
  <text x="450" y="36" class="title">Utkarsh Raj's Contribution Activity Graph</text>

  <!-- Y-Axis Title (Rotated) -->
  <text x="-170" y="24" transform="rotate(-90)" class="axis-title">Contributions</text>

  <!-- Horizontal Grid lines -->
  <line x1="65" y1="65" x2="860" y2="65" stroke="#102E24" stroke-width="1" stroke-dasharray="2,2"/>
  <text x="55" y="69" font-family="-apple-system, sans-serif" font-size="11px" font-weight="700" fill="#00FFA3" text-anchor="end">20</text>
  
  <line x1="65" y1="170.0" x2="860" y2="170.0" stroke="#102E24" stroke-width="1" stroke-dasharray="2,2"/>
  <text x="55" y="174.0" font-family="-apple-system, sans-serif" font-size="11px" font-weight="700" fill="#00FFA3" text-anchor="end">10</text>

  <line x1="65" y1="275" x2="860" y2="275" stroke="#102E24" stroke-width="1" stroke-dasharray="2,2"/>
  <text x="55" y="279" font-family="-apple-system, sans-serif" font-size="11px" font-weight="700" fill="#00FFA3" text-anchor="end">0</text>

  <!-- Vertical Grid and Month Labels -->
  <line x1="65.0" y1="65" x2="65.0" y2="275" stroke="#102E24" stroke-width="1" stroke-dasharray="2,2"/>
    <text x="65.0" y="293" font-family="-apple-system, sans-serif" font-size="11.5px" font-weight="700" fill="#00FFA3" text-anchor="middle">Aug</text>
    <line x1="153.3" y1="65" x2="153.3" y2="275" stroke="#102E24" stroke-width="1" stroke-dasharray="2,2"/>
    <text x="153.3" y="293" font-family="-apple-system, sans-serif" font-size="11.5px" font-weight="700" fill="#00FFA3" text-anchor="middle">Sep</text>
    <line x1="241.7" y1="65" x2="241.7" y2="275" stroke="#102E24" stroke-width="1" stroke-dasharray="2,2"/>
    <text x="241.7" y="293" font-family="-apple-system, sans-serif" font-size="11.5px" font-weight="700" fill="#00FFA3" text-anchor="middle">Oct</text>
    <line x1="330.0" y1="65" x2="330.0" y2="275" stroke="#102E24" stroke-width="1" stroke-dasharray="2,2"/>
    <text x="330.0" y="293" font-family="-apple-system, sans-serif" font-size="11.5px" font-weight="700" fill="#00FFA3" text-anchor="middle">Nov</text>
    <line x1="418.3" y1="65" x2="418.3" y2="275" stroke="#102E24" stroke-width="1" stroke-dasharray="2,2"/>
    <text x="418.3" y="293" font-family="-apple-system, sans-serif" font-size="11.5px" font-weight="700" fill="#00FFA3" text-anchor="middle">Dec</text>
    <line x1="506.7" y1="65" x2="506.7" y2="275" stroke="#102E24" stroke-width="1" stroke-dasharray="2,2"/>
    <text x="506.7" y="293" font-family="-apple-system, sans-serif" font-size="11.5px" font-weight="700" fill="#00FFA3" text-anchor="middle">Jan</text>
    <line x1="595.0" y1="65" x2="595.0" y2="275" stroke="#102E24" stroke-width="1" stroke-dasharray="2,2"/>
    <text x="595.0" y="293" font-family="-apple-system, sans-serif" font-size="11.5px" font-weight="700" fill="#00FFA3" text-anchor="middle">Mar</text>
    <line x1="683.3" y1="65" x2="683.3" y2="275" stroke="#102E24" stroke-width="1" stroke-dasharray="2,2"/>
    <text x="683.3" y="293" font-family="-apple-system, sans-serif" font-size="11.5px" font-weight="700" fill="#00FFA3" text-anchor="middle">May</text>
    <line x1="771.7" y1="65" x2="771.7" y2="275" stroke="#102E24" stroke-width="1" stroke-dasharray="2,2"/>
    <text x="771.7" y="293" font-family="-apple-system, sans-serif" font-size="11.5px" font-weight="700" fill="#00FFA3" text-anchor="middle">Jul</text>
    <line x1="860.0" y1="65" x2="860.0" y2="275" stroke="#102E24" stroke-width="1" stroke-dasharray="2,2"/>
    <text x="860.0" y="293" font-family="-apple-system, sans-serif" font-size="11.5px" font-weight="700" fill="#00FFA3" text-anchor="middle">Aug</text>

  <!-- Bottom Label -->
  <text x="450" y="313" class="axis-title">Timeline (Last 12 Months)</text>

  <!-- Glowing Area Under Curve -->
  <path d="M 65.0 264.5 C 79.7 257.5, 123.9 227.8, 153.3 222.5 C 182.8 217.2, 212.2 247.0, 241.7 233.0 C 271.1 219.0, 300.6 140.2, 330.0 138.5 C 359.4 136.8, 388.9 206.8, 418.3 222.5 C 447.8 238.2, 477.2 236.5, 506.7 233.0 C 536.1 229.5, 565.6 212.0, 595.0 201.5 C 624.4 191.0, 653.9 177.0, 683.3 170.0 C 712.8 163.0, 742.2 163.0, 771.7 159.5 C 801.1 156.0, 845.3 150.8, 860.0 149.0 L 860.0 275.0 L 65.0 275.0 Z" fill="url(#curve-area-grad)"/>

  <!-- Curve Line -->
  <path d="M 65.0 264.5 C 79.7 257.5, 123.9 227.8, 153.3 222.5 C 182.8 217.2, 212.2 247.0, 241.7 233.0 C 271.1 219.0, 300.6 140.2, 330.0 138.5 C 359.4 136.8, 388.9 206.8, 418.3 222.5 C 447.8 238.2, 477.2 236.5, 506.7 233.0 C 536.1 229.5, 565.6 212.0, 595.0 201.5 C 624.4 191.0, 653.9 177.0, 683.3 170.0 C 712.8 163.0, 742.2 163.0, 771.7 159.5 C 801.1 156.0, 845.3 150.8, 860.0 149.0" class="chart-line"/>

  <!-- Cyan Dots & Value Labels on Each Month -->
  <circle cx="65.0" cy="264.5" r="4" fill="#00FFA3" stroke="#7B61FF" stroke-width="2"/>
    <text x="65.0" y="256.5" font-family="-apple-system, sans-serif" font-size="9.5px" font-weight="800" fill="#FFFFFF" text-anchor="middle">1</text>
    <circle cx="153.3" cy="222.5" r="4" fill="#00FFA3" stroke="#7B61FF" stroke-width="2"/>
    <text x="153.3" y="214.5" font-family="-apple-system, sans-serif" font-size="9.5px" font-weight="800" fill="#FFFFFF" text-anchor="middle">5</text>
    <circle cx="241.7" cy="233.0" r="4" fill="#00FFA3" stroke="#7B61FF" stroke-width="2"/>
    <text x="241.7" y="225.0" font-family="-apple-system, sans-serif" font-size="9.5px" font-weight="800" fill="#FFFFFF" text-anchor="middle">4</text>
    <circle cx="330.0" cy="138.5" r="4" fill="#00FFA3" stroke="#7B61FF" stroke-width="2"/>
    <text x="330.0" y="130.5" font-family="-apple-system, sans-serif" font-size="9.5px" font-weight="800" fill="#FFFFFF" text-anchor="middle">13</text>
    <circle cx="418.3" cy="222.5" r="4" fill="#00FFA3" stroke="#7B61FF" stroke-width="2"/>
    <text x="418.3" y="214.5" font-family="-apple-system, sans-serif" font-size="9.5px" font-weight="800" fill="#FFFFFF" text-anchor="middle">5</text>
    <circle cx="506.7" cy="233.0" r="4" fill="#00FFA3" stroke="#7B61FF" stroke-width="2"/>
    <text x="506.7" y="225.0" font-family="-apple-system, sans-serif" font-size="9.5px" font-weight="800" fill="#FFFFFF" text-anchor="middle">4</text>
    <circle cx="595.0" cy="201.5" r="4" fill="#00FFA3" stroke="#7B61FF" stroke-width="2"/>
    <text x="595.0" y="193.5" font-family="-apple-system, sans-serif" font-size="9.5px" font-weight="800" fill="#FFFFFF" text-anchor="middle">7</text>
    <circle cx="683.3" cy="170.0" r="4" fill="#00FFA3" stroke="#7B61FF" stroke-width="2"/>
    <text x="683.3" y="162.0" font-family="-apple-system, sans-serif" font-size="9.5px" font-weight="800" fill="#FFFFFF" text-anchor="middle">10</text>
    <circle cx="771.7" cy="159.5" r="4" fill="#00FFA3" stroke="#7B61FF" stroke-width="2"/>
    <text x="771.7" y="151.5" font-family="-apple-system, sans-serif" font-size="9.5px" font-weight="800" fill="#FFFFFF" text-anchor="middle">11</text>
    <circle cx="860.0" cy="149.0" r="4" fill="#00FFA3" stroke="#7B61FF" stroke-width="2"/>
    <text x="860.0" y="141.0" font-family="-apple-system, sans-serif" font-size="9.5px" font-weight="800" fill="#FFFFFF" text-anchor="middle">12</text>
</svg>